<svg data-v-423bf9ae="" xmlns="http://www.w3.org/2000/svg" viewBox="0 0 183.87097435778236 60" class="font"><!----><!----><!----><g data-v-423bf9ae="" id="6f235671-5bd6-47e0-aae8-226990c737d0" fill="white" transform="matrix(5.376344159530915,0,0,5.376344159530915,-0.9677417168922062,-15.053762675066757)"><path d="M2.31 13.78L2.31 4.83L0.18 4.83L0.18 2.80L6.85 2.80L6.85 4.83L4.70 4.83L4.70 13.78L2.31 13.78ZM7.85 13.78L7.85 2.80L10.12 2.80L10.12 6.87L10.22 6.87L10.22 6.87Q10.51 6.21 11.03 5.84L11.03 5.84L11.03 5.84Q11.55 5.48 12.28 5.48L12.28 5.48L12.28 5.48Q12.95 5.48 13.47 5.82L13.47 5.82L13.47 5.82Q13.99 6.17 14.27 6.81L14.27 6.81L14.27 6.81Q14.56 7.44 14.56 8.29L14.56 8.29L14.56 13.78L12.24 13.78L12.24 8.64L12.24 8.64Q12.24 7.98 12.00 7.67L12.00 7.67L12.00 7.67Q11.77 7.37 11.31 7.37L11.31 7.37L11.31 7.37Q10.79 7.37 10.49 7.78L10.49 7.78L10.49 7.78Q10.19 8.18 10.19 8.90L10.19 8.90L10.19 13.78L7.85 13.78ZM19.00 13.96L19.00 13.96Q17.38 13.96 16.48 12.91L16.48 12.91L16.48 12.91Q15.59 11.85 15.59 9.73L15.59 9.73L15.59 9.73Q15.59 7.57 16.48 6.52L16.48 6.52L16.48 6.52Q17.38 5.48 19.00 5.48L19.00 5.48L19.00 5.48Q20.64 5.48 21.52 6.52L21.52 6.52L21.52 6.52Q22.41 7.57 22.41 9.73L22.41 9.73L22.41 9.73Q22.41 11.86 21.52 12.91L21.52 12.91L21.52 12.91Q20.63 13.96 19.00 13.96L19.00 13.96ZM18.98 12.22L18.98 12.22Q19.38 12.22 19.64 12.00L19.64 12.00L19.64 12.00Q19.90 11.79 20.04 11.24L20.04 11.24L20.04 11.24Q20.19 10.69 20.19 9.72L20.19 9.72L20.19 9.72Q20.19 8.73 20.04 8.18L20.04 8.18L20.04 8.18Q19.90 7.62 19.64 7.41L19.64 7.41L19.64 7.41Q19.38 7.20 18.98 7.20L18.98 7.20L18.98 7.20Q18.61 7.20 18.35 7.41L18.35 7.41L18.35 7.41Q18.10 7.62 17.96 8.18L17.96 8.18L17.96 8.18Q17.82 8.73 17.82 9.72L17.82 9.72L17.82 9.72Q17.82 10.68 17.96 11.23L17.96 11.23L17.96 11.23Q18.10 11.79 18.35 12.00L18.35 12.00L18.35 12.00Q18.61 12.22 18.98 12.22L18.98 12.22ZM25.90 13.78L25.90 13.78Q25.11 13.78 24.64 13.52L24.64 13.52L24.64 13.52Q24.17 13.25 23.96 12.70L23.96 12.70L23.96 12.70Q23.75 12.14 23.75 11.23L23.75 11.23L23.75 7.14L22.89 7.14L22.89 5.63L23.93 5.63L24.41 3.76L26.07 3.76L26.07 5.63L27.51 5.63L27.51 7.14L26.07 7.14L26.07 10.66L26.07 10.66Q26.07 11.22 26.15 11.49L26.15 11.49L26.15 11.49Q26.22 11.76 26.42 11.87L26.42 11.87L26.42 11.87Q26.61 11.97 27.02 11.97L27.02 11.97L27.50 11.97L27.50 13.78L25.90 13.78ZM31.27 5.48L31.27 5.48Q32.73 5.48 33.55 6.17L33.55 6.17L33.55 6.17Q34.38 6.86 34.38 8.34L34.38 8.34L34.38 13.78L32.38 13.78L32.27 12.62L32.15 12.62L32.15 12.62Q31.99 13.12 31.65 13.42L31.65 13.42L31.65 13.42Q31.32 13.71 30.94 13.84L30.94 13.84L30.94 13.84Q30.56 13.96 30.21 13.96L30.21 13.96L30.21 13.96Q29.58 13.96 29.10 13.69L29.10 13.69L29.10 13.69Q28.62 13.43 28.36 12.94L28.36 12.94L28.36 12.94Q28.10 12.46 28.10 11.81L28.10 11.81L28.10 11.81Q28.10 11.00 28.44 10.42L28.44 10.42L28.44 10.42Q28.78 9.85 29.44 9.44L29.44 9.44L29.44 9.44Q30.43 8.82 32.20 8.52L32.20 8.52L32.21 8.41L32.21 8.41Q32.23 8.25 32.23 8.12L32.23 8.12L32.23 8.12Q32.23 7.12 31.22 7.12L31.22 7.12L31.22 7.12Q30.71 7.12 30.41 7.43L30.41 7.43L30.41 7.43Q30.10 7.75 29.96 8.26L29.96 8.26L28.21 7.59L28.21 7.59Q28.48 6.54 29.29 6.01L29.29 6.01L29.29 6.01Q30.11 5.48 31.27 5.48L31.27 5.48ZM31.13 12.30L31.13 12.30Q31.46 12.26 31.72 12.03L31.72 12.03L31.72 12.03Q31.97 11.80 32.16 11.44L32.16 11.44L32.16 9.99L32.16 9.99Q31.49 10.09 30.96 10.45L30.96 10.45L30.96 10.45Q30.27 10.90 30.27 11.53L30.27 11.53L30.27 11.53Q30.27 11.87 30.48 12.09L30.48 12.09L30.48 12.09Q30.70 12.31 31.00 12.31L31.00 12.31L31.00 12.31Q31.05 12.31 31.13 12.30L31.13 12.30Z"></path></g><!----><!----></svg>