<svg data-v-423bf9ae="" xmlns="http://www.w3.org/2000/svg" viewBox="0 0 369 112" class="iconLeft"><!----><!----><!----><g data-v-423bf9ae="" id="15ebff59-08fb-4ad3-aee7-f348a900e701" fill="#FFFFFF" transform="matrix(5.703421805055199,0,0,5.703421805055199,128.32115890467642,7.532742188543459)"><path d="M3.07 13.55L3.07 5.95L0.06 5.95L0.06 3.75L8.83 3.75L8.83 5.95L5.84 5.95L5.84 13.55L3.07 13.55ZM14.69 5.84L14.69 5.84Q16.10 5.84 16.96 6.68L16.96 6.68L16.96 6.68Q17.82 7.52 17.82 9.21L17.82 9.21L17.82 13.55L15.16 13.55L15.16 9.65L15.16 9.65Q15.16 8.09 13.92 8.09L13.92 8.09L13.92 8.09Q13.23 8.09 12.82 8.54L12.82 8.54L12.82 8.54Q12.40 8.99 12.40 9.88L12.40 9.88L12.40 13.55L9.74 13.55L9.74 3.16L12.40 3.16L12.40 6.66L12.40 6.66Q12.84 6.26 13.43 6.05L13.43 6.05L13.43 6.05Q14.01 5.84 14.69 5.84L14.69 5.84ZM23.30 13.68L23.30 13.68Q22.08 13.68 21.10 13.17L21.10 13.17L21.10 13.17Q20.12 12.67 19.57 11.77L19.57 11.77L19.57 11.77Q19.01 10.88 19.01 9.74L19.01 9.74L19.01 9.74Q19.01 8.62 19.57 7.73L19.57 7.73L19.57 7.73Q20.12 6.83 21.09 6.33L21.09 6.33L21.09 6.33Q22.06 5.84 23.30 5.84L23.30 5.84L23.30 5.84Q24.53 5.84 25.51 6.33L25.51 6.33L25.51 6.33Q26.49 6.83 27.03 7.72L27.03 7.72L27.03 7.72Q27.58 8.61 27.58 9.74L27.58 9.74L27.58 9.74Q27.58 10.88 27.03 11.77L27.03 11.77L27.03 11.77Q26.49 12.67 25.51 13.17L25.51 13.17L25.51 13.17Q24.53 13.68 23.30 13.68L23.30 13.68ZM23.30 11.56L23.30 11.56Q24.00 11.56 24.44 11.08L24.44 11.08L24.44 11.08Q24.89 10.60 24.89 9.74L24.89 9.74L24.89 9.74Q24.89 8.90 24.44 8.43L24.44 8.43L24.44 8.43Q24.00 7.95 23.30 7.95L23.30 7.95L23.30 7.95Q22.60 7.95 22.15 8.43L22.15 8.43L22.15 8.43Q21.70 8.90 21.70 9.74L21.70 9.74L21.70 9.74Q21.70 10.60 22.15 11.08L22.15 11.08L22.15 11.08Q22.60 11.56 23.30 11.56L23.30 11.56ZM33.39 11.38L34.05 13.24L34.05 13.24Q33.71 13.45 33.23 13.57L33.23 13.57L33.23 13.57Q32.75 13.68 32.20 13.68L32.20 13.68L32.20 13.68Q30.72 13.68 29.92 12.95L29.92 12.95L29.92 12.95Q29.12 12.22 29.12 10.78L29.12 10.78L29.12 8.23L28.01 8.23L28.01 6.24L29.12 6.24L29.12 4.27L31.78 4.27L31.78 6.24L33.52 6.24L33.52 8.23L31.78 8.23L31.78 10.75L31.78 10.75Q31.78 11.16 32.00 11.39L32.00 11.39L32.00 11.39Q32.21 11.62 32.58 11.62L32.58 11.62L32.58 11.62Q33.04 11.62 33.39 11.38L33.39 11.38ZM38.30 5.84L38.30 5.84Q40.19 5.84 41.19 6.70L41.19 6.70L41.19 6.70Q42.18 7.56 42.18 9.34L42.18 9.34L42.18 13.55L39.70 13.55L39.70 12.57L39.70 12.57Q39.13 13.68 37.46 13.68L37.46 13.68L37.46 13.68Q36.58 13.68 35.94 13.37L35.94 13.37L35.94 13.37Q35.29 13.06 34.97 12.54L34.97 12.54L34.97 12.54Q34.64 12.01 34.64 11.34L34.64 11.34L34.64 11.34Q34.64 10.26 35.46 9.67L35.46 9.67L35.46 9.67Q36.29 9.07 38.01 9.07L38.01 9.07L39.52 9.07L39.52 9.07Q39.45 7.87 37.91 7.87L37.91 7.87L37.91 7.87Q37.37 7.87 36.81 8.04L36.81 8.04L36.81 8.04Q36.25 8.22 35.85 8.53L35.85 8.53L34.96 6.72L34.96 6.72Q35.59 6.30 36.49 6.07L36.49 6.07L36.49 6.07Q37.39 5.84 38.30 5.84L38.30 5.84ZM38.21 12.00L38.21 12.00Q38.67 12.00 39.02 11.77L39.02 11.77L39.02 11.77Q39.37 11.55 39.52 11.12L39.52 11.12L39.52 10.46L38.37 10.46L38.37 10.46Q37.21 10.46 37.21 11.23L37.21 11.23L37.21 11.23Q37.21 11.58 37.48 11.79L37.48 11.79L37.48 11.79Q37.74 12.00 38.21 12.00L38.21 12.00Z"></path></g><!----><g data-v-423bf9ae="" id="181e5337-ac38-4e67-9081-5e7600efb923" transform="matrix(1.1111111111111112,0,0,1.1111111111111112,0.6683181126912388,0.44444444444444287)" stroke="none" fill="#88DF95"><g><path d="M92.949 28.574a50.002 50.002 0 0 0-1.917-3.612c-31.763 6.55-70.245 23.78-87.199 49.308a50.33 50.33 0 0 0 17.545 18.437c14.746-28.547 52.89-57.315 71.571-64.133zM88.161 20.564C79.049 8.101 64.326 0 47.705 0 26.224 0 7.908 13.525.79 32.522c25.66-12.748 65.727-15.247 87.371-11.958zM51.853 100c25.723-2.111 45.944-23.641 45.944-49.908a49.96 49.96 0 0 0-3.861-19.312C76.481 48.621 58.938 74.629 51.853 100zM10.784 47.083h1.575V61.45h-1.575z"></path><path d="M8.768 35.951c2.803 2.63 3.716 8.27 3.552 11.111 5.571-4.525-.565-13.208-5.431-14.315.33 2.208.107 4.251-.223 6.076-.72 4.025 1.159 7.949 4.2 8.27.08-2.038.705-4.92-2.098-11.142z"></path><path d="M2.507 48.42c1.666-.761 5.88-.401 7.699.08-3.185-4.818-8.927-1.835-10.206.498 1.53.238 2.834.812 3.973 1.406 2.511 1.313 5.496.885 6.342-1.062-1.332-.471-5.887-.957-7.808-.922zM18.505 46.233c-.396 1.782-3.227 4.932-4.702 6.089 5.761.368 6.845-6.013 5.754-8.439-1.114 1.077-2.359 1.771-3.519 2.32-2.565 1.211-4.021 3.854-2.98 5.699 1.186-.776 4.321-4.119 5.447-5.669zM45.054 83.666h1.575v14.367h-1.575z"></path><path d="M43.039 72.534c2.803 2.63 3.716 8.27 3.552 11.109 5.572-4.523-.565-13.208-5.431-14.313.33 2.208.106 4.253-.223 6.075-.72 4.024 1.159 7.951 4.2 8.271.079-2.038.704-4.921-2.098-11.142z"></path><path d="M36.778 85.003c1.666-.763 5.88-.401 7.698.079-3.186-4.818-8.927-1.836-10.207.497 1.53.238 2.835.812 3.973 1.406 2.511 1.313 5.496.885 6.342-1.059-1.329-.474-5.884-.958-7.806-.923zM52.779 82.815c-.396 1.783-3.226 4.933-4.701 6.09 5.761.366 6.846-6.015 5.754-8.439-1.114 1.075-2.359 1.77-3.519 2.319-2.562 1.21-4.021 3.854-2.978 5.698 1.181-.776 4.316-4.12 5.444-5.668zM31.124 35.936h1.145v10.435h-1.145z"></path><path d="M29.66 27.853c2.035 1.909 2.698 6.005 2.578 8.067 4.048-3.285-.411-9.592-3.942-10.393.24 1.603.077 3.088-.164 4.412-.521 2.921.842 5.773 3.05 6.007.059-1.482.513-3.576-1.522-8.093z"></path><path d="M25.113 36.907c1.208-.552 4.27-.291 5.592.058-2.316-3.499-6.483-1.333-7.412.361 1.111.173 2.059.589 2.885 1.021 1.825.955 3.991.643 4.605-.769-.967-.346-4.274-.696-5.67-.671zM36.733 35.32c-.289 1.293-2.343 3.581-3.414 4.421 4.183.266 4.971-4.368 4.18-6.13-.811.78-1.713 1.286-2.556 1.685-1.863.878-2.92 2.8-2.164 4.138.859-.561 3.137-2.99 3.954-4.114zM58.464 65.586h1.146v10.438h-1.146z"></path><path d="M57 57.504c2.035 1.909 2.697 6.006 2.58 8.067 4.047-3.285-.411-9.593-3.943-10.395.241 1.604.078 3.09-.165 4.414-.52 2.922.843 5.773 3.051 6.008.059-1.484.513-3.577-1.523-8.094z"></path><path d="M52.453 66.561c1.209-.555 4.27-.294 5.593.057-2.315-3.5-6.482-1.333-7.411.36 1.108.174 2.059.591 2.886 1.021 1.827.953 3.991.644 4.606-.771-.968-.343-4.278-.694-5.674-.667zM64.073 64.97c-.288 1.292-2.342 3.582-3.414 4.423 4.183.264 4.97-4.367 4.18-6.131-.81.781-1.713 1.288-2.555 1.686-1.862.878-2.922 2.799-2.164 4.136.858-.562 3.134-2.99 3.953-4.114zM50.152 28.824h.818v7.002h-.818z"></path><path d="M49.015 23.401c1.548 1.282 2.05 4.028 1.962 5.413 3.078-2.204-.314-6.436-3.002-6.975.184 1.078.059 2.072-.124 2.96-.395 1.961.642 3.873 2.322 4.029.041-.99.386-2.396-1.158-5.427z"></path><path d="M45.555 29.477c.92-.371 3.245-.196 4.252.038-1.76-2.347-4.929-.895-5.635.242.845.116 1.565.396 2.194.686 1.388.64 3.034.43 3.5-.518-.734-.23-3.248-.463-4.311-.448zM54.392 28.412c-.219.869-1.779 2.403-2.598 2.967 3.18.177 3.78-2.932 3.178-4.114-.617.524-1.304.865-1.944 1.13-1.416.59-2.219 1.878-1.644 2.778.652-.376 2.386-2.006 3.008-2.761zM70.946 49.618h.816v7.002h-.816z"></path><path d="M69.807 44.197c1.548 1.281 2.053 4.028 1.962 5.411 3.079-2.202-.313-6.436-2.999-6.975.183 1.078.059 2.073-.123 2.962-.396 1.96.64 3.872 2.32 4.029.042-.992.388-2.396-1.16-5.427z"></path><path d="M66.349 50.271c.919-.37 3.246-.195 4.253.038-1.76-2.347-4.93-.894-5.637.242.845.116 1.566.396 2.195.686 1.385.641 3.032.431 3.5-.517-.735-.231-3.248-.464-4.311-.449zM75.187 49.207c-.222.869-1.781 2.402-2.601 2.965 3.183.178 3.782-2.931 3.18-4.112-.618.524-1.303.862-1.944 1.129-1.414.59-2.22 1.878-1.646 2.777.655-.377 2.387-2.006 3.011-2.759zM65.704 25.275h.551v4.727h-.551z"></path><path d="M64.935 21.616c1.042.865 1.383 2.718 1.322 3.653 2.078-1.489-.208-4.345-2.025-4.707.124.727.039 1.398-.083 1.999-.269 1.323.434 2.615 1.567 2.72.029-.671.261-1.62-.781-3.665z"></path><path d="M62.598 25.716c.619-.25 2.189-.132 2.871.027-1.188-1.585-3.327-.603-3.804.163.57.079 1.06.268 1.483.463.936.432 2.047.29 2.359-.35-.494-.156-2.192-.312-2.909-.303zM68.565 24.997c-.149.587-1.206 1.622-1.753 2.003 2.146.12 2.548-1.978 2.143-2.777-.416.354-.878.583-1.312.764-.955.397-1.496 1.266-1.108 1.874.436-.255 1.61-1.353 2.03-1.864z"></path></g></g><!----></svg>