<svg data-v-423bf9ae="" xmlns="http://www.w3.org/2000/svg" viewBox="0 0 313 112" class="iconLeft"><!----><!----><!----><g data-v-423bf9ae="" id="22dbb939-21f6-4a1c-bef8-9bdf59a43cee" fill="#000000" transform="matrix(5.376344159530915,0,0,5.376344159530915,127.69561887881092,10.501792668561173)"><path d="M2.31 13.78L2.31 4.83L0.18 4.83L0.18 2.80L6.85 2.80L6.85 4.83L4.70 4.83L4.70 13.78L2.31 13.78ZM7.85 13.78L7.85 2.80L10.12 2.80L10.12 6.87L10.22 6.87L10.22 6.87Q10.51 6.21 11.03 5.84L11.03 5.84L11.03 5.84Q11.55 5.48 12.28 5.48L12.28 5.48L12.28 5.48Q12.95 5.48 13.47 5.82L13.47 5.82L13.47 5.82Q13.99 6.17 14.27 6.81L14.27 6.81L14.27 6.81Q14.56 7.44 14.56 8.29L14.56 8.29L14.56 13.78L12.24 13.78L12.24 8.64L12.24 8.64Q12.24 7.98 12.00 7.67L12.00 7.67L12.00 7.67Q11.77 7.37 11.31 7.37L11.31 7.37L11.31 7.37Q10.79 7.37 10.49 7.78L10.49 7.78L10.49 7.78Q10.19 8.18 10.19 8.90L10.19 8.90L10.19 13.78L7.85 13.78ZM19.00 13.96L19.00 13.96Q17.38 13.96 16.48 12.91L16.48 12.91L16.48 12.91Q15.59 11.85 15.59 9.73L15.59 9.73L15.59 9.73Q15.59 7.57 16.48 6.52L16.48 6.52L16.48 6.52Q17.38 5.48 19.00 5.48L19.00 5.48L19.00 5.48Q20.64 5.48 21.52 6.52L21.52 6.52L21.52 6.52Q22.41 7.57 22.41 9.73L22.41 9.73L22.41 9.73Q22.41 11.86 21.52 12.91L21.52 12.91L21.52 12.91Q20.63 13.96 19.00 13.96L19.00 13.96ZM18.98 12.22L18.98 12.22Q19.38 12.22 19.64 12.00L19.64 12.00L19.64 12.00Q19.90 11.79 20.04 11.24L20.04 11.24L20.04 11.24Q20.19 10.69 20.19 9.72L20.19 9.72L20.19 9.72Q20.19 8.73 20.04 8.18L20.04 8.18L20.04 8.18Q19.90 7.62 19.64 7.41L19.64 7.41L19.64 7.41Q19.38 7.20 18.98 7.20L18.98 7.20L18.98 7.20Q18.61 7.20 18.35 7.41L18.35 7.41L18.35 7.41Q18.10 7.62 17.96 8.18L17.96 8.18L17.96 8.18Q17.82 8.73 17.82 9.72L17.82 9.72L17.82 9.72Q17.82 10.68 17.96 11.23L17.96 11.23L17.96 11.23Q18.10 11.79 18.35 12.00L18.35 12.00L18.35 12.00Q18.61 12.22 18.98 12.22L18.98 12.22ZM25.90 13.78L25.90 13.78Q25.11 13.78 24.64 13.52L24.64 13.52L24.64 13.52Q24.17 13.25 23.96 12.70L23.96 12.70L23.96 12.70Q23.75 12.14 23.75 11.23L23.75 11.23L23.75 7.14L22.89 7.14L22.89 5.63L23.93 5.63L24.41 3.76L26.07 3.76L26.07 5.63L27.51 5.63L27.51 7.14L26.07 7.14L26.07 10.66L26.07 10.66Q26.07 11.22 26.15 11.49L26.15 11.49L26.15 11.49Q26.22 11.76 26.42 11.87L26.42 11.87L26.42 11.87Q26.61 11.97 27.02 11.97L27.02 11.97L27.50 11.97L27.50 13.78L25.90 13.78ZM31.27 5.48L31.27 5.48Q32.73 5.48 33.55 6.17L33.55 6.17L33.55 6.17Q34.38 6.86 34.38 8.34L34.38 8.34L34.38 13.78L32.38 13.78L32.27 12.62L32.15 12.62L32.15 12.62Q31.99 13.12 31.65 13.42L31.65 13.42L31.65 13.42Q31.32 13.71 30.94 13.84L30.94 13.84L30.94 13.84Q30.56 13.96 30.21 13.96L30.21 13.96L30.21 13.96Q29.58 13.96 29.10 13.69L29.10 13.69L29.10 13.69Q28.62 13.43 28.36 12.94L28.36 12.94L28.36 12.94Q28.10 12.46 28.10 11.81L28.10 11.81L28.10 11.81Q28.10 11.00 28.44 10.42L28.44 10.42L28.44 10.42Q28.78 9.85 29.44 9.44L29.44 9.44L29.44 9.44Q30.43 8.82 32.20 8.52L32.20 8.52L32.21 8.41L32.21 8.41Q32.23 8.25 32.23 8.12L32.23 8.12L32.23 8.12Q32.23 7.12 31.22 7.12L31.22 7.12L31.22 7.12Q30.71 7.12 30.41 7.43L30.41 7.43L30.41 7.43Q30.10 7.75 29.96 8.26L29.96 8.26L28.21 7.59L28.21 7.59Q28.48 6.54 29.29 6.01L29.29 6.01L29.29 6.01Q30.11 5.48 31.27 5.48L31.27 5.48ZM31.13 12.30L31.13 12.30Q31.46 12.26 31.72 12.03L31.72 12.03L31.72 12.03Q31.97 11.80 32.16 11.44L32.16 11.44L32.16 9.99L32.16 9.99Q31.49 10.09 30.96 10.45L30.96 10.45L30.96 10.45Q30.27 10.90 30.27 11.53L30.27 11.53L30.27 11.53Q30.27 11.87 30.48 12.09L30.48 12.09L30.48 12.09Q30.70 12.31 31.00 12.31L31.00 12.31L31.00 12.31Q31.05 12.31 31.13 12.30L31.13 12.30Z"></path></g><defs data-v-423bf9ae=""><linearGradient data-v-423bf9ae="" gradientTransform="rotate(25)" id="74e22476-d11d-4007-b74a-a6e63d28a0a6" x1="0%" y1="0%" x2="100%" y2="0%"><stop data-v-423bf9ae="" offset="0%" style="stop-color: rgb(1, 100, 139); stop-opacity: 1;"></stop><stop data-v-423bf9ae="" offset="100%" style="stop-color: rgb(91, 208, 164); stop-opacity: 1;"></stop></linearGradient></defs><g data-v-423bf9ae="" id="2c23b454-a7fe-4ff6-9e16-1e6947323c32" transform="matrix(1.1111111111111112,0,0,1.1111111111111112,0.6683181126912388,0.44444444444444287)" stroke="none" fill="url(#74e22476-d11d-4007-b74a-a6e63d28a0a6)"><g><path d="M92.949 28.574a50.002 50.002 0 0 0-1.917-3.612c-31.763 6.55-70.245 23.78-87.199 49.308a50.33 50.33 0 0 0 17.545 18.437c14.746-28.547 52.89-57.315 71.571-64.133zM88.161 20.564C79.049 8.101 64.326 0 47.705 0 26.224 0 7.908 13.525.79 32.522c25.66-12.748 65.727-15.247 87.371-11.958zM51.853 100c25.723-2.111 45.944-23.641 45.944-49.908a49.96 49.96 0 0 0-3.861-19.312C76.481 48.621 58.938 74.629 51.853 100zM10.784 47.083h1.575V61.45h-1.575z"></path><path d="M8.768 35.951c2.803 2.63 3.716 8.27 3.552 11.111 5.571-4.525-.565-13.208-5.431-14.315.33 2.208.107 4.251-.223 6.076-.72 4.025 1.159 7.949 4.2 8.27.08-2.038.705-4.92-2.098-11.142z"></path><path d="M2.507 48.42c1.666-.761 5.88-.401 7.699.08-3.185-4.818-8.927-1.835-10.206.498 1.53.238 2.834.812 3.973 1.406 2.511 1.313 5.496.885 6.342-1.062-1.332-.471-5.887-.957-7.808-.922zM18.505 46.233c-.396 1.782-3.227 4.932-4.702 6.089 5.761.368 6.845-6.013 5.754-8.439-1.114 1.077-2.359 1.771-3.519 2.32-2.565 1.211-4.021 3.854-2.98 5.699 1.186-.776 4.321-4.119 5.447-5.669zM45.054 83.666h1.575v14.367h-1.575z"></path><path d="M43.039 72.534c2.803 2.63 3.716 8.27 3.552 11.109 5.572-4.523-.565-13.208-5.431-14.313.33 2.208.106 4.253-.223 6.075-.72 4.024 1.159 7.951 4.2 8.271.079-2.038.704-4.921-2.098-11.142z"></path><path d="M36.778 85.003c1.666-.763 5.88-.401 7.698.079-3.186-4.818-8.927-1.836-10.207.497 1.53.238 2.835.812 3.973 1.406 2.511 1.313 5.496.885 6.342-1.059-1.329-.474-5.884-.958-7.806-.923zM52.779 82.815c-.396 1.783-3.226 4.933-4.701 6.09 5.761.366 6.846-6.015 5.754-8.439-1.114 1.075-2.359 1.77-3.519 2.319-2.562 1.21-4.021 3.854-2.978 5.698 1.181-.776 4.316-4.12 5.444-5.668zM31.124 35.936h1.145v10.435h-1.145z"></path><path d="M29.66 27.853c2.035 1.909 2.698 6.005 2.578 8.067 4.048-3.285-.411-9.592-3.942-10.393.24 1.603.077 3.088-.164 4.412-.521 2.921.842 5.773 3.05 6.007.059-1.482.513-3.576-1.522-8.093z"></path><path d="M25.113 36.907c1.208-.552 4.27-.291 5.592.058-2.316-3.499-6.483-1.333-7.412.361 1.111.173 2.059.589 2.885 1.021 1.825.955 3.991.643 4.605-.769-.967-.346-4.274-.696-5.67-.671zM36.733 35.32c-.289 1.293-2.343 3.581-3.414 4.421 4.183.266 4.971-4.368 4.18-6.13-.811.78-1.713 1.286-2.556 1.685-1.863.878-2.92 2.8-2.164 4.138.859-.561 3.137-2.99 3.954-4.114zM58.464 65.586h1.146v10.438h-1.146z"></path><path d="M57 57.504c2.035 1.909 2.697 6.006 2.58 8.067 4.047-3.285-.411-9.593-3.943-10.395.241 1.604.078 3.09-.165 4.414-.52 2.922.843 5.773 3.051 6.008.059-1.484.513-3.577-1.523-8.094z"></path><path d="M52.453 66.561c1.209-.555 4.27-.294 5.593.057-2.315-3.5-6.482-1.333-7.411.36 1.108.174 2.059.591 2.886 1.021 1.827.953 3.991.644 4.606-.771-.968-.343-4.278-.694-5.674-.667zM64.073 64.97c-.288 1.292-2.342 3.582-3.414 4.423 4.183.264 4.97-4.367 4.18-6.131-.81.781-1.713 1.288-2.555 1.686-1.862.878-2.922 2.799-2.164 4.136.858-.562 3.134-2.99 3.953-4.114zM50.152 28.824h.818v7.002h-.818z"></path><path d="M49.015 23.401c1.548 1.282 2.05 4.028 1.962 5.413 3.078-2.204-.314-6.436-3.002-6.975.184 1.078.059 2.072-.124 2.96-.395 1.961.642 3.873 2.322 4.029.041-.99.386-2.396-1.158-5.427z"></path><path d="M45.555 29.477c.92-.371 3.245-.196 4.252.038-1.76-2.347-4.929-.895-5.635.242.845.116 1.565.396 2.194.686 1.388.64 3.034.43 3.5-.518-.734-.23-3.248-.463-4.311-.448zM54.392 28.412c-.219.869-1.779 2.403-2.598 2.967 3.18.177 3.78-2.932 3.178-4.114-.617.524-1.304.865-1.944 1.13-1.416.59-2.219 1.878-1.644 2.778.652-.376 2.386-2.006 3.008-2.761zM70.946 49.618h.816v7.002h-.816z"></path><path d="M69.807 44.197c1.548 1.281 2.053 4.028 1.962 5.411 3.079-2.202-.313-6.436-2.999-6.975.183 1.078.059 2.073-.123 2.962-.396 1.96.64 3.872 2.32 4.029.042-.992.388-2.396-1.16-5.427z"></path><path d="M66.349 50.271c.919-.37 3.246-.195 4.253.038-1.76-2.347-4.93-.894-5.637.242.845.116 1.566.396 2.195.686 1.385.641 3.032.431 3.5-.517-.735-.231-3.248-.464-4.311-.449zM75.187 49.207c-.222.869-1.781 2.402-2.601 2.965 3.183.178 3.782-2.931 3.18-4.112-.618.524-1.303.862-1.944 1.129-1.414.59-2.22 1.878-1.646 2.777.655-.377 2.387-2.006 3.011-2.759zM65.704 25.275h.551v4.727h-.551z"></path><path d="M64.935 21.616c1.042.865 1.383 2.718 1.322 3.653 2.078-1.489-.208-4.345-2.025-4.707.124.727.039 1.398-.083 1.999-.269 1.323.434 2.615 1.567 2.72.029-.671.261-1.62-.781-3.665z"></path><path d="M62.598 25.716c.619-.25 2.189-.132 2.871.027-1.188-1.585-3.327-.603-3.804.163.57.079 1.06.268 1.483.463.936.432 2.047.29 2.359-.35-.494-.156-2.192-.312-2.909-.303zM68.565 24.997c-.149.587-1.206 1.622-1.753 2.003 2.146.12 2.548-1.978 2.143-2.777-.416.354-.878.583-1.312.764-.955.397-1.496 1.266-1.108 1.874.436-.255 1.61-1.353 2.03-1.864z"></path></g></g><!----></svg>